<?xml version="1.0" encoding="utf-8"?>
<!DOCTYPE svg PUBLIC "-//W3C//DTD SVG 1.1//EN" "http://www.w3.org/Graphics/SVG/1.1/DTD/svg11.dtd">
<svg version="1.1" id="Capa_1" xmlns="http://www.w3.org/2000/svg" xmlns:xlink="http://www.w3.org/1999/xlink" x="0px" y="0px"
	 viewBox="0 0 425.2 425.2" enable-background="new 0 0 425.2 425.2" xml:space="preserve">
<rect x="0" y="0" fill="#FFFFFF" width="425.2" height="425.2"/>
<path d="M0,0v425.2h425.2V0H0z M4.3,420.9V4.3h416.7v416.7H4.3z M96.5,254l13.1,35H83.3L96.5,254z M306.5,135.4l8.1-8.1l5.9,6.4
	l-10.3-27.4l-10.5,27.8l2.9-2.9L306.5,135.4z M250.2,132.4c4.2,0,7.9-0.5,11-1.4c3.1-0.9,5.7-2.2,7.7-3.7c2-1.5,3.5-3.2,4.5-5.1
	c1-1.9,1.5-3.8,1.5-5.7s-0.5-3.8-1.5-5.7c-1-1.9-2.5-3.6-4.5-5.1c-2-1.5-4.6-2.7-7.7-3.7c-3.1-0.9-6.8-1.4-11-1.4h-1.9
	c-0.3,0-0.6,0-0.9,0v31.7c0.3,0,0.6,0,0.9,0C249,132.4,249.6,132.4,250.2,132.4z M416.6,8.6v408.1H8.6V8.6H416.6z M286.2,156.1
	l4.5,1.6l5.6-14.8l6.1-6.1l3.9,4.2l8.1-8.1l4,4.4l5.5,5.7l5.5,14.7l4.5-1.6l-23.9-63.6l-18.8,49.9L286.2,156.1z M242.6,157h4.8
	v-19.8c0.3,0,0.6,0,0.8,0c0.7,0,1.3,0,1.9,0c3.9,0,7.5-0.4,10.6-1.1l16.8,22.1l3.9-2.9l-15.7-20.7c1.9-0.8,3.7-1.7,5.2-2.7
	c1.9-1.3,3.6-2.8,4.9-4.4c1.3-1.6,2.3-3.4,3-5.2c0.7-1.8,1-3.8,1-5.7c0-2.6-0.6-5.1-1.9-7.6c-1.2-2.5-3.1-4.7-5.6-6.7
	c-2.5-1.9-5.6-3.5-9.2-4.7c-3.6-1.2-7.9-1.8-12.8-1.8c-1,0-2,0-3.1,0c-1.2,0-2.3,0.1-3.4,0.2l-1,0.1V157z M153.3,157h35.5v-4.8
	h-30.6v-26.6h25.1v-4.8h-25.1v-19.8h30.6v-4.8h-35.5V157z M139,157h4.8V96.1H139V157z M86.1,89.8H108V157h5.3V89.8h21.9v-5.3H86.1
	V89.8z M123.7,311.4L123.7,311.4l-0.5-1.4c0-0.1-0.1-0.2-0.1-0.4l-26.5-70.4l-27,71.7l-0.2,0.4l4.9,1.7l7.1-18.9h30.3l6.4,16.9
	c0,0.2,0.1,0.3,0.1,0.5c6.5,16.8,0.7,34.5-14.6,44.2c-5.4,3.4-11.8,5.2-18.4,5.2c-3.2,0-6.4-0.4-9.4-1.2c-9.7-2.6-17.8-9-22.3-17.5
	c-3.1-5.8-4.5-12.6-4.5-21.2c0-9.6,2.3-19.4,7.4-31.7c10.1-24.1,24.8-49.6,33.5-61.3c0.4-0.6,0.6-1.2,0.5-1.9
	c-0.1-0.7-0.5-1.3-1-1.7c-1.1-0.8-2.8-0.6-3.6,0.5c-9.1,12.3-23.7,37.7-34.1,62.4c-5.4,12.9-7.8,23.3-7.8,33.7
	c0,9.5,1.6,17,5.1,23.7c5.2,9.8,14.5,17.1,25.6,20.1c3.5,0.9,7.2,1.4,10.8,1.4c7.6,0,15-2.1,21.2-6
	C123.2,349.6,130.1,330,123.7,311.4z M64.3,341.7c-0.5-0.3-0.8-0.4-0.8-0.4l-1.1-0.5l0.5,1.1c0,0,0.1,0.3,0.5,0.9
	c0.1,0.2,0.3,0.5,0.5,0.8l0.1,0.2c0.2,0.3,0.4,0.6,0.7,0.9c1.4,1.8,3.5,3.5,5.6,4.7c1.3,0.7,2.5,1.2,3.6,1.6
	c1.2,0.4,2.3,0.6,3.4,0.7c0.4,0,0.8,0.1,1.2,0.1l0.2,0l0.2,0c0.4,0,0.7,0,0.9,0c0.6-0.1,0.9-0.1,0.9-0.1l1.2-0.2l-1-0.6
	c0,0-0.3-0.2-0.8-0.4l-2-1c-0.8-0.4-1.8-0.9-2.7-1.4c-0.3-0.1-0.5-0.3-0.8-0.4c-0.3-0.1-0.5-0.3-0.8-0.4l-0.4-0.2
	c-0.4-0.2-0.7-0.4-1.1-0.6c-0.3-0.2-0.7-0.4-1-0.6l-4.7-2.8L64.3,341.7z M126.5,281.9c0-3.3,0.5-6.5,1.6-9.6c1-3.1,2.6-5.9,4.6-8.3
	c2-2.4,4.6-4.4,7.7-5.9c3.1-1.5,6.7-2.2,10.9-2.2c0.8,0,1.7,0,2.8,0c1.1,0,2.1,0.1,3,0.2l1.2,0.1l0.3-4.8l-1.1-0.1
	c-1-0.1-2-0.2-3.2-0.2c-1.1,0-2.1,0-3,0c-4.9,0-9.3,0.9-13,2.7c-3.7,1.8-6.8,4.1-9.3,7c-2.5,2.9-4.3,6.2-5.5,9.9
	c-1.2,3.6-1.8,7.4-1.8,11.3c0,3.8,0.6,7.6,1.8,11.2c1.2,3.7,3.1,7,5.5,9.9c2.5,2.9,5.6,5.2,9.3,7c3.7,1.8,8,2.7,12.9,2.7
	c0.9,0,1.9,0,3.1,0c1.2,0,2.3-0.1,3.2-0.2l1.1-0.1l-0.3-4.8l-1.2,0.1c-0.9,0.1-1.9,0.2-3,0.2c-1.1,0-2.1,0-2.9,0
	c-4.1,0-7.7-0.7-10.8-2.2c-3.1-1.5-5.7-3.4-7.7-5.8c-2-2.4-3.6-5.2-4.6-8.3C127,288.4,126.5,285.2,126.5,281.9z M201.8,251.5h-35.5
	v60.9h35.5v-4.8h-30.6v-26.6h25.1v-4.8h-25.1v-19.8h30.6V251.5z M209.5,210.9c0.8-2.5,1.2-5,1.2-7.6c0-2.6-0.4-5.2-1.2-7.7
	c-0.8-2.5-2.1-4.8-3.8-6.7c-1.7-2-3.8-3.6-6.3-4.8c-2.5-1.2-5.5-1.8-8.8-1.8c-0.6,0-1.4,0-2.4,0.1c-1,0-1.8,0.1-2.6,0.2l-1,0.1v41.2
	l1,0.1c0.8,0.1,1.6,0.1,2.6,0.1c0.9,0,1.7,0,2.4,0c3.3,0,6.3-0.6,8.8-1.8c2.5-1.2,4.6-2.8,6.3-4.8
	C207.5,215.6,208.7,213.4,209.5,210.9z M214.8,251.5h-4.8v60.9h4.8V251.5z M215.1,136.1l16.8,22.1l3.9-2.9L220,134.6
	c1.9-0.8,3.7-1.7,5.2-2.7c1.9-1.3,3.6-2.8,4.9-4.4c1.3-1.6,2.3-3.4,3-5.2c0.7-1.8,1-3.8,1-5.7c0-2.6-0.6-5.1-1.9-7.6
	c-1.2-2.5-3.1-4.7-5.6-6.7c-2.5-1.9-5.6-3.5-9.2-4.7c-3.6-1.2-7.9-1.8-12.8-1.8c-1,0-2,0-3.1,0c-1.2,0-2.3,0.1-3.4,0.2l-1,0.1V157
	h4.8v-19.8c0.3,0,0.6,0,0.8,0c0.7,0,1.3,0,1.9,0C208.5,137.3,212,136.9,215.1,136.1z M215.4,224h24.4v-4h-20.4v-17h16.7v-4h-16.7
	v-12.4h20.4v-4h-24.4V224z M263.8,251.5h-41.3v4.8h18.3v56.1h4.8v-56.1h18.3V251.5z M307,251.5h-35.5v60.9H307v-4.8h-30.6v-26.6
	h25.1v-4.8h-25.1v-19.8H307V251.5z M318.8,267.7c0-1.8,0.3-3.5,1-5c0.7-1.5,1.6-2.8,2.9-3.9c1.2-1.1,2.7-2,4.4-2.6
	c1.7-0.6,3.5-0.9,5.5-0.9c2.8,0,5.4,0.6,7.7,1.9c2.2,1.2,4,3.2,5.2,5.8l0.5,1l4.5-1.9l-0.5-1.1c-1.6-3.6-3.9-6.3-7.1-8
	c-3.1-1.7-6.5-2.6-10.2-2.6c-2.6,0-5,0.4-7.3,1.2c-2.3,0.8-4.2,2-5.9,3.5c-1.7,1.5-3,3.4-4,5.5c-1,2.1-1.4,4.5-1.4,7
	c0,2.4,0.6,4.5,1.7,6.3c1.1,1.7,2.5,3.3,4.2,4.6c1.7,1.3,3.5,2.4,5.6,3.3c2,0.9,3.9,1.7,5.8,2.3c1.7,0.6,3.4,1.3,5.1,2
	c1.7,0.7,3.2,1.6,4.6,2.6c1.3,1,2.4,2.1,3.3,3.4c0.8,1.2,1.2,2.5,1.2,4c0,1.8-0.3,3.5-1,5c-0.7,1.5-1.6,2.8-2.9,3.9
	c-1.2,1.1-2.7,2-4.4,2.6c-1.7,0.6-3.5,0.9-5.5,0.9c-2.8,0-5.4-0.6-7.7-1.9c-2.2-1.2-4-3.2-5.2-5.8l-0.5-1l-4.5,1.9l0.5,1.1
	c1.5,3.6,3.9,6.3,7,8c3.1,1.7,6.5,2.6,10.3,2.6c2.6,0,5-0.4,7.3-1.2c2.3-0.8,4.2-2,5.9-3.5c1.7-1.5,3-3.4,4-5.5c1-2.1,1.4-4.5,1.4-7
	c0-2.4-0.6-4.5-1.7-6.3c-1.1-1.7-2.5-3.3-4.2-4.6c-1.7-1.3-3.5-2.4-5.6-3.3c-2-0.9-3.9-1.7-5.9-2.3c-1.6-0.5-3.3-1.2-5-2
	c-1.7-0.7-3.2-1.6-4.6-2.6c-1.3-1-2.4-2.1-3.3-3.3C319.2,270.6,318.8,269.2,318.8,267.7z M364.7,311.1c0-2.1-1.7-3.8-3.8-3.8
	c-2.1,0-3.8,1.7-3.8,3.8c0,2.1,1.7,3.8,3.8,3.8C363,314.8,364.7,313.2,364.7,311.1z M202.7,191.6c-1.3-1.6-3-2.8-5-3.8
	c-2-1-4.4-1.4-7-1.4c-0.4,0-0.9,0-1.5,0c-0.2,0-0.3,0-0.5,0v33.7c0.2,0,0.3,0,0.5,0h1.5c2.7,0,5-0.5,7-1.4c2-0.9,3.7-2.2,5-3.8
	c1.3-1.6,2.3-3.4,3-5.4c0.7-2,1-4.1,1-6.3c0-2.1-0.3-4.2-1-6.3C205.1,195,204.1,193.2,202.7,191.6z M227.7,122.3
	c1-1.9,1.5-3.8,1.5-5.7s-0.5-3.8-1.5-5.7c-1-1.9-2.5-3.6-4.5-5.1c-2-1.5-4.6-2.7-7.7-3.7c-3.1-0.9-6.8-1.4-11-1.4h-1.9
	c-0.3,0-0.6,0-0.9,0v31.7c0.3,0,0.6,0,0.9,0c0.7,0,1.3,0,1.9,0c4.2,0,7.9-0.5,11-1.4c3.1-0.9,5.7-2.2,7.7-3.7
	C225.2,125.8,226.7,124.1,227.7,122.3z"/>
</svg>
